<svg width="760" height="220" viewBox="0 0 760 220" fill="none" xmlns="http://www.w3.org/2000/svg">
  <rect width="760" height="220" rx="44" fill="#05070A"/>
  <path d="M110 31C137 31 164 63 186 102C209 143 209 195 171 215C146 228 73 228 49 215C10 195 11 143 34 102C56 63 83 31 110 31Z" fill="url(#onyx)"/>
  <path d="M47 144C57 82 87 47 111 47C141 47 171 96 180 142C162 111 139 96 109 98C78 100 57 118 47 144Z" fill="url(#shine)" opacity="0.95"/>
  <text x="232" y="135" fill="#F5F7FA" font-family="Inter, Arial, sans-serif" font-size="82" font-weight="760">Qonyx</text>
  <text x="238" y="171" fill="#9AA4B2" font-family="Inter, Arial, sans-serif" font-size="24" font-weight="600">Onyx Terminal</text>
  <defs>
    <linearGradient id="onyx" x1="55" y1="47" x2="165" y2="215" gradientUnits="userSpaceOnUse">
      <stop stop-color="#565B63"/>
      <stop offset="0.32" stop-color="#121418"/>
      <stop offset="0.7" stop-color="#050506"/>
      <stop offset="1" stop-color="#181C22"/>
    </linearGradient>
    <linearGradient id="shine" x1="77" y1="41" x2="155" y2="146" gradientUnits="userSpaceOnUse">
      <stop stop-color="white" stop-opacity="0.58"/>
      <stop offset="0.48" stop-color="white" stop-opacity="0.12"/>
      <stop offset="1" stop-color="white" stop-opacity="0"/>
    </linearGradient>
  </defs>
</svg>
